# xmcd
#
# Track frame offsets: 
#        150
#        12067
#        28955
#        43822
#        55709
#        70155
#        78869
#        97178
#        115953
#        129422
#        137009
#        149403
#        164723
#        172419
#        193753
#
# Disc length: 2788 seconds
#
# Revision: 0
# Processed by: cddbd v1.5.2PL0 Copyright (c) Steve Scherf et al.
# Submitted via: ExactAudioCopy v0.99pb5
#
DISCID=df0ae20f
DTITLE=Roger Bellow and Paul Anastasio - Cross-Country Swing
DYEAR=1999
DGENRE=Country
TTITLE0=No More Nothing
TTITLE1=Heaert Of A Clown
TTITLE2=No One Will Ever Know
TTITLE3=It Makes No Difference Now
TTITLE4=Before I'm Over You
TTITLE5=Let's Settle Down To Runnin' 'Round Together
TTITLE6=I Gotta Have My Baby Back
TTITLE7=Take Me Back To The Prairie
TTITLE8=Sick, Sober and Sorry
TTITLE9=Silver Bells
TTITLE10=Dinah
TTITLE11=It Could Happen To You
TTITLE12=Whispering
TTITLE13=Darn That Dream
TTITLE14=Love Is Just Around The Corner
EXTD=
EXTT0=
EXTT1=
EXTT2=
EXTT3=
EXTT4=
EXTT5=
EXTT6=
EXTT7=
EXTT8=
EXTT9=
EXTT10=
EXTT11=
EXTT12=
EXTT13=
EXTT14=
PLAYORDER=
